<svg width="80" height="80" viewBox="0 0 80 80" fill="none" xmlns="http://www.w3.org/2000/svg">
<path d="M61.0156 47.4219C60.3906 47.1615 59.7526 47.1484 59.1016 47.3828C58.4505 47.6172 57.9948 48.0469 57.7344 48.6719L57.3828 49.375L56.4062 50.9375L54.6875 53.2031L52.1875 55.5859L48.9062 57.8125L44.8047 59.4141L39.8438 60.0781C39.7917 60.0781 39.7396 60.0911 39.6875 60.1172L39.6094 60.1562C38.151 60.1562 36.7448 60 35.3906 59.6875C34.0365 59.375 32.8385 58.9453 31.7969 58.3984C30.7552 57.8516 29.7786 57.2656 28.8672 56.6406C27.9557 56.0156 27.1484 55.3255 26.4453 54.5703C25.7422 53.8151 25.1302 53.125 24.6094 52.5C24.0885 51.875 23.6458 51.25 23.2812 50.625C22.9167 50 22.6562 49.5573 22.5 49.2969C22.3438 49.0365 22.2396 48.8281 22.1875 48.6719C21.875 48.0469 21.4062 47.6172 20.7812 47.3828C20.1562 47.1484 19.5182 47.1745 18.8672 47.4609C18.2161 47.7474 17.7734 48.2031 17.5391 48.8281C17.3047 49.4531 17.3438 50.1042 17.6562 50.7812C17.7083 50.9375 17.7995 51.1458 17.9297 51.4062C18.0599 51.6667 18.3333 52.1224 18.75 52.7734C19.1667 53.4245 19.5964 54.0755 20.0391 54.7266C20.4818 55.3776 21.0807 56.1198 21.8359 56.9531C22.5911 57.7865 23.3854 58.5677 24.2188 59.2969C25.0521 60.026 26.0286 60.7552 27.1484 61.4844C28.2682 62.2135 29.4401 62.8385 30.6641 63.3594C31.888 63.8802 33.2682 64.3099 34.8047 64.6484C36.3411 64.987 37.9167 65.1562 39.5312 65.1562C39.5833 65.1562 39.6875 65.1302 39.8438 65.0781C42.8125 65.0781 45.625 64.5703 48.2812 63.5547C50.9375 62.5391 53.0469 61.4193 54.6094 60.1953C56.1719 58.9714 57.5911 57.5521 58.8672 55.9375C60.1432 54.3229 60.9766 53.1641 61.3672 52.4609C61.7578 51.7578 62.0573 51.1719 62.2656 50.7031C62.4219 50.4948 62.513 50.2474 62.5391 49.9609C62.5651 49.6745 62.5391 49.4141 62.4609 49.1797C62.3828 48.9453 62.2917 48.7109 62.1875 48.4766C62.0833 48.2422 61.9271 48.0339 61.7188 47.8516C61.5104 47.6693 61.276 47.526 61.0156 47.4219ZM40 0C34.5833 0 29.401 1.05469 24.4531 3.16406C19.5052 5.27344 15.2474 8.11198 11.6797 11.6797C8.11198 15.2474 5.27344 19.5052 3.16406 24.4531C1.05469 29.401 0 34.5833 0 40C0 45.4167 1.05469 50.599 3.16406 55.5469C5.27344 60.4948 8.11198 64.7526 11.6797 68.3203C15.2474 71.888 19.5052 74.7266 24.4531 76.8359C29.401 78.9453 34.5833 80 40 80C45.4167 80 50.599 78.9453 55.5469 76.8359C60.4948 74.7266 64.7526 71.888 68.3203 68.3203C71.888 64.7526 74.7266 60.4948 76.8359 55.5469C78.9453 50.599 80 45.4167 80 40C80 34.5833 78.9453 29.401 76.8359 24.4531C74.7266 19.5052 71.888 15.2474 68.3203 11.6797C64.7526 8.11198 60.4948 5.27344 55.5469 3.16406C50.599 1.05469 45.4167 0 40 0ZM40 75C36.1979 75 32.513 74.4141 28.9453 73.2422C25.3776 72.0703 22.1615 70.4036 19.2969 68.2422C16.4323 66.0807 13.9193 63.5677 11.7578 60.7031C9.59635 57.8385 7.92969 54.6224 6.75781 51.0547C5.58594 47.487 5 43.8021 5 40C5 35.2604 5.92448 30.7292 7.77344 26.4062C9.6224 22.0833 12.1094 18.3594 15.2344 15.2344C18.3594 12.1094 22.0833 9.6224 26.4062 7.77344C30.7292 5.92448 35.2604 5 40 5C44.7396 5 49.2708 5.92448 53.5938 7.77344C57.9167 9.6224 61.6406 12.1094 64.7656 15.2344C67.8906 18.3594 70.3776 22.0833 72.2266 26.4062C74.0755 30.7292 75 35.2604 75 40C75 44.7396 74.0755 49.2708 72.2266 53.5938C70.3776 57.9167 67.8906 61.6406 64.7656 64.7656C61.6406 67.8906 57.9167 70.3776 53.5938 72.2266C49.2708 74.0755 44.7396 75 40 75ZM27.5 37.5C28.8542 37.5 30.013 37.0052 30.9766 36.0156C31.9401 35.026 32.4219 33.8542 32.4219 32.5C32.4219 31.6146 32.2005 30.7812 31.7578 30C31.3151 29.2188 30.7161 28.6068 29.9609 28.1641C29.2057 27.7214 28.3854 27.5 27.5 27.5C26.0938 27.5 24.9089 27.9948 23.9453 28.9844C22.9818 29.974 22.5 31.1458 22.5 32.5C22.5 34.5312 23.3854 36.0156 25.1562 36.9531C25.9375 37.3177 26.7188 37.5 27.5 37.5ZM52.5 37.5C52.8646 37.5 53.2292 37.4479 53.5938 37.3438C53.9583 37.2396 54.3099 37.1094 54.6484 36.9531C54.987 36.7969 55.2995 36.6016 55.5859 36.3672C55.8724 36.1328 56.1328 35.8724 56.3672 35.5859C56.6016 35.2995 56.7969 35 56.9531 34.6875C57.1094 34.375 57.2266 34.0234 57.3047 33.6328C57.3828 33.2422 57.4219 32.8646 57.4219 32.5C57.4219 31.1458 56.9401 29.974 55.9766 28.9844C55.013 27.9948 53.8411 27.5 52.4609 27.5C51.0807 27.5 49.9089 27.9948 48.9453 28.9844C47.9818 29.974 47.5 31.1458 47.5 32.5C47.5 33.8542 47.9818 35.026 48.9453 36.0156C49.9089 37.0052 51.0938 37.5 52.5 37.5Z" fill="#FFA755"/>
</svg>
