<svg width="94" height="75" viewBox="0 0 94 75" fill="none" xmlns="http://www.w3.org/2000/svg">
<path d="M30.5502 51.5625C30.1991 51.5625 29.8481 51.6138 29.5132 51.7222C27.6097 52.3389 25.6078 52.7344 23.5002 52.7344C21.3925 52.7344 19.3906 52.3389 17.4857 51.7222C17.1508 51.6138 16.8012 51.5625 16.4502 51.5625C7.33516 51.5625 -0.0482314 58.957 0.000237273 68.0596C0.0207997 71.9062 3.19182 75 7.05022 75H39.9501C43.8085 75 46.9796 71.9062 47.0001 68.0596C47.0486 58.957 39.6652 51.5625 30.5502 51.5625ZM23.5002 46.875C31.2875 46.875 37.6001 40.5791 37.6001 32.8125C37.6001 25.0459 31.2875 18.75 23.5002 18.75C15.7129 18.75 9.40021 25.0459 9.40021 32.8125C9.40021 40.5791 15.7129 46.875 23.5002 46.875ZM86.95 0H30.5502C26.6624 0 23.5002 3.25928 23.5002 7.26416V14.0625C26.94 14.0625 30.1242 15.0557 32.9002 16.6699V9.375H84.6V51.5625H75.2001V42.1875H56.4001V51.5625H45.2024C48.0077 54.0073 50.0669 57.2358 51.0318 60.9375H86.95C90.8378 60.9375 94 57.6782 94 53.6733V7.26416C94 3.25928 90.8378 0 86.95 0Z" fill="#FFA755"/>
</svg>
