<svg width="144" height="54" viewBox="0 0 144 54" fill="none" xmlns="http://www.w3.org/2000/svg">
<path d="M8.84365 30.1125V38.6596C8.84365 40.88 10.0603 42.9483 12.007 44.0129L27.2153 52.3167C29.0403 53.3204 31.2303 53.3204 33.0553 52.3167L48.2636 44.0129C50.2103 42.9483 51.427 40.88 51.427 38.6596V30.1125L33.0553 40.15C31.2303 41.1537 29.0403 41.1537 27.2153 40.15L8.84365 30.1125ZM27.2153 0.73L1.57406 14.7217C-0.524688 15.8775 -0.524688 18.9192 1.57406 20.075L27.2153 34.0667C29.0403 35.0704 31.2303 35.0704 33.0553 34.0667L57.5103 20.7137V38.69C57.5103 40.3629 58.8791 41.7317 60.552 41.7317C62.2249 41.7317 63.5936 40.3629 63.5936 38.69V19.1929C63.5936 18.0675 62.9853 17.0637 62.012 16.5162L33.0553 0.73C32.1566 0.250709 31.1538 0 30.1353 0C29.1168 0 28.114 0.250709 27.2153 0.73Z" fill="#F8F8F8"/>
<path d="M77.447 32.208C76.485 32.208 75.6183 32.0087 74.847 31.61C74.0757 31.2027 73.469 30.6393 73.027 29.92C72.5937 29.192 72.377 28.3687 72.377 27.45C72.377 26.5313 72.5937 25.7123 73.027 24.993C73.469 24.265 74.0757 23.7017 74.847 23.303C75.6183 22.8957 76.485 22.692 77.447 22.692C78.331 22.692 79.1197 22.848 79.813 23.16C80.5063 23.472 81.0783 23.9227 81.529 24.512L79.592 26.241C79.0287 25.5303 78.3657 25.175 77.603 25.175C76.9617 25.175 76.446 25.383 76.056 25.799C75.666 26.2063 75.471 26.7567 75.471 27.45C75.471 28.1433 75.666 28.698 76.056 29.114C76.446 29.5213 76.9617 29.725 77.603 29.725C78.3657 29.725 79.0287 29.3697 79.592 28.659L81.529 30.388C81.0783 30.9773 80.5063 31.428 79.813 31.74C79.1197 32.052 78.331 32.208 77.447 32.208Z" fill="white"/>
<path d="M86.3148 29.712H85.4828V32H82.4148V22.9H86.7958C87.6365 22.9 88.3688 23.0387 88.9928 23.316C89.6168 23.5933 90.0978 23.992 90.4358 24.512C90.7738 25.032 90.9428 25.6387 90.9428 26.332C90.9428 26.982 90.7955 27.5497 90.5008 28.035C90.2062 28.5203 89.7815 28.906 89.2268 29.192L91.1378 32H87.8618L86.3148 29.712ZM87.8488 26.332C87.8488 25.994 87.7448 25.734 87.5368 25.552C87.3288 25.3613 87.0168 25.266 86.6008 25.266H85.4828V27.398H86.6008C87.0168 27.398 87.3288 27.307 87.5368 27.125C87.7448 26.9343 87.8488 26.67 87.8488 26.332Z" fill="white"/>
<path d="M99.6674 29.686V32H92.1013V22.9H99.4984V25.214H95.1173V26.28H98.9653V28.49H95.1173V29.686H99.6674Z" fill="white"/>
<path d="M107.049 30.414H103.591L102.98 32H99.8604L103.838 22.9H106.854L110.832 32H107.66L107.049 30.414ZM106.204 28.204L105.32 25.916L104.436 28.204H106.204Z" fill="white"/>
<path d="M112.841 25.279H110.176V22.9H118.574V25.279H115.909V32H112.841V25.279Z" fill="white"/>
<path d="M119.371 22.9H122.439V32H119.371V22.9Z" fill="white"/>
<path d="M128.687 32.208C127.707 32.208 126.828 32.0043 126.048 31.597C125.268 31.1897 124.657 30.6263 124.215 29.907C123.773 29.179 123.552 28.36 123.552 27.45C123.552 26.54 123.773 25.7253 124.215 25.006C124.657 24.278 125.268 23.7103 126.048 23.303C126.828 22.8957 127.707 22.692 128.687 22.692C129.666 22.692 130.546 22.8957 131.326 23.303C132.106 23.7103 132.717 24.278 133.159 25.006C133.601 25.7253 133.822 26.54 133.822 27.45C133.822 28.36 133.601 29.179 133.159 29.907C132.717 30.6263 132.106 31.1897 131.326 31.597C130.546 32.0043 129.666 32.208 128.687 32.208ZM128.687 29.725C129.068 29.725 129.41 29.634 129.714 29.452C130.026 29.2613 130.273 28.997 130.455 28.659C130.637 28.3123 130.728 27.9093 130.728 27.45C130.728 26.9907 130.637 26.592 130.455 26.254C130.273 25.9073 130.026 25.643 129.714 25.461C129.41 25.2703 129.068 25.175 128.687 25.175C128.305 25.175 127.959 25.2703 127.647 25.461C127.343 25.643 127.101 25.9073 126.919 26.254C126.737 26.592 126.646 26.9907 126.646 27.45C126.646 27.9093 126.737 28.3123 126.919 28.659C127.101 28.997 127.343 29.2613 127.647 29.452C127.959 29.634 128.305 29.725 128.687 29.725Z" fill="white"/>
<path d="M143.905 22.9V32H141.383L137.925 27.866V32H134.935V22.9H137.457L140.915 27.034V22.9H143.905Z" fill="white"/>
</svg>
